<svg xmlns="http://www.w3.org/2000/svg" xmlns:cc="http://creativecommons.org/ns#" xmlns:dc="http://purl.org/dc/elements/1.1/" xmlns:rdf="http://www.w3.org/1999/02/22-rdf-syntax-ns#" xmlns:x="adobe:ns:meta/" viewBox="0 0 422.9 81.1" xml:space="preserve"><metadata>                                                                                                                                                                                                                                                                                                                                                                                                                                                                                                                                                                                                                                                                                                                                                                                                                                                                                                                                                                                                                                                                                                                                                                                                                                                                                                                                                                                                                                                                                                                                                                                                                                                                                                                                                                                                                                                                                                                                                                                                                                                                                                           </metadata><style type="text/css">	.st0{fill:#191919;}</style><g transform="translate(-86.7,-370.2)">	<path class="st0" d="m146 401c1.7 3 3.1 5.6 4.4 7.8s2.4 4.2 3.3 6c1 1.8 1.8 3.4 2.5 4.8s1.4 2.9 2.1 4.2c0.6-1.4 1.3-2.8 2-4.2s1.6-3 2.5-4.8c1-1.8 2.1-3.8 3.3-6 1.3-2.2 2.7-4.8 4.4-7.8l12.2-21.7c1.4-2.4 3.1-4.4 5.2-5.9s4.7-2.2 7.8-2.2c3 0 5.7 0.9 8.1 2.6s4.1 4.4 5.2 7.9l19.3 67.2h-23.6l-7.2-26.6c-1.2-4.3-2.2-8.2-3.1-11.4-0.8-3.3-1.6-6.5-2.2-9.6-1.3 2.7-2.7 5.6-4.3 8.9-1.6 3.2-3.7 7.3-6.3 12.3l-10.3 19.2c-1 1.9-2 3.4-3 4.5s-2.1 2-3.1 2.6c-1.1 0.6-2.2 1-3.4 1.2s-2.6 0.3-4 0.3-2.8-0.1-4-0.3-2.4-0.6-3.4-1.2c-1.1-0.6-2.1-1.5-3.1-2.6s-2-2.6-3-4.5l-10.3-19.4c-1.4-2.6-2.6-4.9-3.7-7s-2-3.9-2.9-5.5-1.6-3.1-2.3-4.5c-0.6-1.4-1.3-2.7-1.9-4-0.6 3-1.3 6.2-2.2 9.5-0.8 3.3-1.8 7.1-3 11.5l-7.2 26.6h-23.1l19.8-67.2c1.1-3.6 2.8-6.2 5.3-7.9 2.4-1.7 5.1-2.6 8.1-2.6s5.6 0.7 7.7 2.2c2.1 1.4 3.8 3.4 5.2 5.9z"></path></g><g transform="translate(-86.7,-370.2)">	<path class="st0" d="m508.5 429.3 0.1 19.7h-91.6v-76.5h23.7v56.8z"></path></g><g transform="translate(-86.7,-370.2)">	<path class="st0" d="m423.5 429.3-0.2 19.7h-92.6v-76.5h77.6l-0.1 19.9h-53.7v9.1h39.9l-0.2 17.4h-39.7v10.4z"></path></g><g transform="translate(-86.7,-370.2)">	<path class="st0" d="m256.6 449 14.3-19.7h19.2 7.1c2.5 0 4.6 0.1 6.5 0.2-1.1-1.4-2.3-3.1-3.7-5.2s-2.8-4.1-4.1-5.9l-13.7-20.2-35.9 50.8h-28l49-69.2c1.6-2.2 3.6-4.2 6.1-5.9 2.4-1.8 5.5-2.6 9.3-2.6 3.6 0 6.6 0.8 9 2.5 2.4 1.6 4.4 3.7 6.1 6.1l34.8 50.4s10.9 18.8-17.4 18.8-58.6-0.1-58.6-0.1z"></path></g></svg>